<mxfile host="app.diagrams.net" modified="2023-11-02T01:53:03.498Z" agent="Mozilla/5.0 (Windows NT 10.0; Win64; x64) AppleWebKit/537.36 (KHTML, like Gecko) Chrome/118.0.0.0 Safari/537.36 Edg/118.0.2088.76" etag="Wm3U8JV6cQi-tpUbNPi0" version="22.0.8" type="device">
  <diagram name="Page-1" id="dR95Y_NGqkqi5GkCuGiw">
    <mxGraphModel dx="1356" dy="835" grid="0" gridSize="10" guides="1" tooltips="1" connect="1" arrows="1" fold="1" page="1" pageScale="1" pageWidth="1100" pageHeight="850" math="0" shadow="0">
      <root>
        <mxCell id="0" />
        <mxCell id="1" parent="0" />
        <mxCell id="8sHy2h1UV8YPM5XxpdJE-1" value="&lt;font face=&quot;Times New Roman&quot;&gt;Admin&lt;/font&gt;" style="whiteSpace=wrap;html=1;align=center;labelBackgroundColor=none;" parent="1" vertex="1">
          <mxGeometry x="173" y="118" width="87" height="27" as="geometry" />
        </mxCell>
        <mxCell id="8sHy2h1UV8YPM5XxpdJE-2" value="&lt;font style=&quot;font-size: 9px;&quot;&gt;admin_id&lt;/font&gt;" style="ellipse;whiteSpace=wrap;html=1;align=center;fontStyle=4;labelBackgroundColor=none;" parent="1" vertex="1">
          <mxGeometry x="72" y="65" width="69" height="23" as="geometry" />
        </mxCell>
        <mxCell id="8sHy2h1UV8YPM5XxpdJE-5" value="&lt;font style=&quot;font-size: 9px;&quot;&gt;email&lt;/font&gt;" style="ellipse;whiteSpace=wrap;html=1;align=center;labelBackgroundColor=none;" parent="1" vertex="1">
          <mxGeometry x="275" y="65" width="72" height="25" as="geometry" />
        </mxCell>
        <mxCell id="8sHy2h1UV8YPM5XxpdJE-8" value="Menu" style="whiteSpace=wrap;html=1;align=center;labelBackgroundColor=none;" parent="1" vertex="1">
          <mxGeometry x="450" y="114" width="90" height="29" as="geometry" />
        </mxCell>
        <mxCell id="8sHy2h1UV8YPM5XxpdJE-9" value="&lt;font style=&quot;font-size: 10px;&quot;&gt;RoomType&amp;nbsp;&lt;/font&gt;" style="whiteSpace=wrap;html=1;align=center;labelBackgroundColor=none;" parent="1" vertex="1">
          <mxGeometry x="703" y="111.5" width="99" height="29.5" as="geometry" />
        </mxCell>
        <mxCell id="8sHy2h1UV8YPM5XxpdJE-21" value="&lt;font style=&quot;font-size: 10px;&quot;&gt;Mengelola&lt;/font&gt;" style="shape=rhombus;perimeter=rhombusPerimeter;whiteSpace=wrap;html=1;align=center;" parent="1" vertex="1">
          <mxGeometry x="171" y="274" width="91" height="35" as="geometry" />
        </mxCell>
        <mxCell id="8sHy2h1UV8YPM5XxpdJE-40" value="&lt;font style=&quot;font-size: 9px;&quot;&gt;password&lt;/font&gt;" style="ellipse;whiteSpace=wrap;html=1;align=center;labelBackgroundColor=none;" parent="1" vertex="1">
          <mxGeometry x="233" y="27" width="72" height="25" as="geometry" />
        </mxCell>
        <mxCell id="8sHy2h1UV8YPM5XxpdJE-41" value="&lt;font style=&quot;font-size: 9px;&quot;&gt;username&lt;/font&gt;" style="ellipse;whiteSpace=wrap;html=1;align=center;labelBackgroundColor=none;" parent="1" vertex="1">
          <mxGeometry x="130" y="25" width="72" height="25" as="geometry" />
        </mxCell>
        <mxCell id="8sHy2h1UV8YPM5XxpdJE-44" value="&lt;font style=&quot;font-size: 10px;&quot;&gt;ReservationOrder&lt;/font&gt;" style="whiteSpace=wrap;html=1;align=center;labelBackgroundColor=none;" parent="1" vertex="1">
          <mxGeometry x="167.5" y="368" width="104" height="33" as="geometry" />
        </mxCell>
        <mxCell id="8sHy2h1UV8YPM5XxpdJE-49" value="User" style="whiteSpace=wrap;html=1;align=center;labelBackgroundColor=none;" parent="1" vertex="1">
          <mxGeometry x="714" y="370" width="90" height="29" as="geometry" />
        </mxCell>
        <mxCell id="8sHy2h1UV8YPM5XxpdJE-50" value="&lt;span style=&quot;font-size: 10px;&quot;&gt;Pemesanan&lt;/span&gt;" style="shape=rhombus;perimeter=rhombusPerimeter;whiteSpace=wrap;html=1;align=center;" parent="1" vertex="1">
          <mxGeometry x="459" y="367" width="91" height="35" as="geometry" />
        </mxCell>
        <mxCell id="8sHy2h1UV8YPM5XxpdJE-56" value="Payment" style="whiteSpace=wrap;html=1;align=center;labelBackgroundColor=none;" parent="1" vertex="1">
          <mxGeometry x="175" y="600" width="90" height="29" as="geometry" />
        </mxCell>
        <mxCell id="8sHy2h1UV8YPM5XxpdJE-60" value="&lt;font style=&quot;font-size: 9px;&quot;&gt;nama_menu&lt;/font&gt;" style="ellipse;whiteSpace=wrap;html=1;align=center;labelBackgroundColor=none;" parent="1" vertex="1">
          <mxGeometry x="415" y="29" width="72" height="25" as="geometry" />
        </mxCell>
        <mxCell id="8sHy2h1UV8YPM5XxpdJE-61" value="&lt;font style=&quot;font-size: 9px;&quot;&gt;jenis&lt;/font&gt;" style="ellipse;whiteSpace=wrap;html=1;align=center;labelBackgroundColor=none;" parent="1" vertex="1">
          <mxGeometry x="515" y="30" width="72" height="25" as="geometry" />
        </mxCell>
        <mxCell id="8sHy2h1UV8YPM5XxpdJE-62" value="&lt;font style=&quot;font-size: 9px;&quot;&gt;harga&lt;/font&gt;" style="ellipse;whiteSpace=wrap;html=1;align=center;labelBackgroundColor=none;" parent="1" vertex="1">
          <mxGeometry x="569" y="68" width="72" height="25" as="geometry" />
        </mxCell>
        <mxCell id="8sHy2h1UV8YPM5XxpdJE-64" value="&lt;font style=&quot;font-size: 9px;&quot;&gt;menu_id&lt;/font&gt;" style="ellipse;whiteSpace=wrap;html=1;align=center;fontStyle=4;labelBackgroundColor=none;" parent="1" vertex="1">
          <mxGeometry x="369" y="68" width="69" height="23" as="geometry" />
        </mxCell>
        <mxCell id="8sHy2h1UV8YPM5XxpdJE-65" value="&lt;font style=&quot;font-size: 9px;&quot;&gt;room_type_id&lt;/font&gt;" style="ellipse;whiteSpace=wrap;html=1;align=center;fontStyle=4;labelBackgroundColor=none;" parent="1" vertex="1">
          <mxGeometry x="659" y="65" width="69" height="23" as="geometry" />
        </mxCell>
        <mxCell id="8sHy2h1UV8YPM5XxpdJE-66" value="&lt;font style=&quot;font-size: 9px;&quot;&gt;deskripsi&lt;/font&gt;" style="ellipse;whiteSpace=wrap;html=1;align=center;labelBackgroundColor=none;" parent="1" vertex="1">
          <mxGeometry x="784" y="63" width="72" height="25" as="geometry" />
        </mxCell>
        <mxCell id="8sHy2h1UV8YPM5XxpdJE-67" value="&lt;font style=&quot;font-size: 9px;&quot;&gt;nama_tipe&lt;/font&gt;" style="ellipse;whiteSpace=wrap;html=1;align=center;labelBackgroundColor=none;" parent="1" vertex="1">
          <mxGeometry x="716" y="40" width="72" height="25" as="geometry" />
        </mxCell>
        <mxCell id="8sHy2h1UV8YPM5XxpdJE-69" value="&lt;font style=&quot;font-size: 9px;&quot;&gt;username&lt;/font&gt;" style="ellipse;whiteSpace=wrap;html=1;align=center;labelBackgroundColor=none;" parent="1" vertex="1">
          <mxGeometry x="812" y="455" width="72" height="25" as="geometry" />
        </mxCell>
        <mxCell id="8sHy2h1UV8YPM5XxpdJE-70" value="&lt;font style=&quot;font-size: 9px;&quot;&gt;&amp;nbsp;password&lt;/font&gt;" style="ellipse;whiteSpace=wrap;html=1;align=center;labelBackgroundColor=none;" parent="1" vertex="1">
          <mxGeometry x="875" y="408" width="72" height="25" as="geometry" />
        </mxCell>
        <mxCell id="8sHy2h1UV8YPM5XxpdJE-71" value="&lt;font style=&quot;font-size: 9px;&quot;&gt;email&amp;nbsp;&lt;/font&gt;" style="ellipse;whiteSpace=wrap;html=1;align=center;labelBackgroundColor=none;" parent="1" vertex="1">
          <mxGeometry x="895" y="365" width="72" height="25" as="geometry" />
        </mxCell>
        <mxCell id="8sHy2h1UV8YPM5XxpdJE-72" value="&lt;font style=&quot;font-size: 9px;&quot;&gt;nama_lengkap&lt;/font&gt;" style="ellipse;whiteSpace=wrap;html=1;align=center;labelBackgroundColor=none;" parent="1" vertex="1">
          <mxGeometry x="862" y="315" width="72" height="25" as="geometry" />
        </mxCell>
        <mxCell id="8sHy2h1UV8YPM5XxpdJE-73" value="&lt;font style=&quot;font-size: 9px;&quot;&gt;nomor_telepon&lt;/font&gt;" style="ellipse;whiteSpace=wrap;html=1;align=center;labelBackgroundColor=none;" parent="1" vertex="1">
          <mxGeometry x="821" y="275" width="72" height="25" as="geometry" />
        </mxCell>
        <mxCell id="8sHy2h1UV8YPM5XxpdJE-74" value="&lt;font style=&quot;font-size: 9px;&quot;&gt;user_id&lt;/font&gt;" style="ellipse;whiteSpace=wrap;html=1;align=center;fontStyle=4;labelBackgroundColor=none;" parent="1" vertex="1">
          <mxGeometry x="725" y="476" width="69" height="23" as="geometry" />
        </mxCell>
        <mxCell id="8sHy2h1UV8YPM5XxpdJE-75" value="&lt;font style=&quot;font-size: 9px;&quot;&gt;payment_id&lt;/font&gt;" style="ellipse;whiteSpace=wrap;html=1;align=center;fontStyle=4;labelBackgroundColor=none;" parent="1" vertex="1">
          <mxGeometry x="84" y="656" width="69" height="23" as="geometry" />
        </mxCell>
        <mxCell id="8sHy2h1UV8YPM5XxpdJE-76" value="&lt;font style=&quot;font-size: 9px;&quot;&gt;&lt;u&gt;reservation_order_id&lt;/u&gt;&lt;/font&gt;" style="ellipse;whiteSpace=wrap;html=1;align=center;labelBackgroundColor=none;" parent="1" vertex="1">
          <mxGeometry x="108" y="692" width="108" height="25" as="geometry" />
        </mxCell>
        <mxCell id="8sHy2h1UV8YPM5XxpdJE-77" value="&lt;font style=&quot;font-size: 9px;&quot;&gt;amount&lt;/font&gt;" style="ellipse;whiteSpace=wrap;html=1;align=center;labelBackgroundColor=none;" parent="1" vertex="1">
          <mxGeometry x="238" y="689" width="72" height="25" as="geometry" />
        </mxCell>
        <mxCell id="8sHy2h1UV8YPM5XxpdJE-78" value="&lt;font style=&quot;font-size: 9px;&quot;&gt;payment_date&lt;/font&gt;" style="ellipse;whiteSpace=wrap;html=1;align=center;labelBackgroundColor=none;" parent="1" vertex="1">
          <mxGeometry x="286" y="654" width="72" height="25" as="geometry" />
        </mxCell>
        <mxCell id="TL4UzfGEoN0zPa1Lu0g8-2" value="&lt;font style=&quot;font-size: 10px;&quot;&gt;Transaksi&lt;/font&gt;" style="shape=rhombus;perimeter=rhombusPerimeter;whiteSpace=wrap;html=1;align=center;" vertex="1" parent="1">
          <mxGeometry x="175" y="500" width="91" height="35" as="geometry" />
        </mxCell>
        <mxCell id="TL4UzfGEoN0zPa1Lu0g8-3" value="&lt;font style=&quot;font-size: 9px;&quot;&gt;reservation_order_id&lt;/font&gt;" style="ellipse;whiteSpace=wrap;html=1;align=center;fontStyle=4;labelBackgroundColor=none;" vertex="1" parent="1">
          <mxGeometry x="59" y="300" width="104" height="30" as="geometry" />
        </mxCell>
        <mxCell id="TL4UzfGEoN0zPa1Lu0g8-4" value="&lt;font style=&quot;font-size: 9px;&quot;&gt;&lt;u&gt;admin_id&lt;/u&gt;&lt;/font&gt;" style="ellipse;whiteSpace=wrap;html=1;align=center;labelBackgroundColor=none;" vertex="1" parent="1">
          <mxGeometry x="324" y="407" width="72" height="25" as="geometry" />
        </mxCell>
        <mxCell id="TL4UzfGEoN0zPa1Lu0g8-5" value="&lt;font style=&quot;font-size: 9px;&quot;&gt;jumlah&lt;/font&gt;" style="ellipse;whiteSpace=wrap;html=1;align=center;labelBackgroundColor=none;" vertex="1" parent="1">
          <mxGeometry x="296" y="433" width="72" height="25" as="geometry" />
        </mxCell>
        <mxCell id="TL4UzfGEoN0zPa1Lu0g8-6" value="&lt;font style=&quot;font-size: 9px;&quot;&gt;&lt;u&gt;menu_id&lt;/u&gt;&lt;/font&gt;" style="ellipse;whiteSpace=wrap;html=1;align=center;labelBackgroundColor=none;" vertex="1" parent="1">
          <mxGeometry x="275" y="458" width="72" height="25" as="geometry" />
        </mxCell>
        <mxCell id="TL4UzfGEoN0zPa1Lu0g8-7" value="&lt;font style=&quot;font-size: 9px;&quot;&gt;jam_selesai&lt;/font&gt;" style="ellipse;whiteSpace=wrap;html=1;align=center;labelBackgroundColor=none;" vertex="1" parent="1">
          <mxGeometry x="58" y="433" width="72" height="25" as="geometry" />
        </mxCell>
        <mxCell id="TL4UzfGEoN0zPa1Lu0g8-8" value="&lt;font style=&quot;font-size: 9px;&quot;&gt;jumlah_kursi&lt;/font&gt;" style="ellipse;whiteSpace=wrap;html=1;align=center;labelBackgroundColor=none;" vertex="1" parent="1">
          <mxGeometry x="94.5" y="455" width="72" height="25" as="geometry" />
        </mxCell>
        <mxCell id="TL4UzfGEoN0zPa1Lu0g8-9" value="&lt;font style=&quot;font-size: 9px;&quot;&gt;jam_mulai&lt;/font&gt;" style="ellipse;whiteSpace=wrap;html=1;align=center;labelBackgroundColor=none;" vertex="1" parent="1">
          <mxGeometry x="33" y="410" width="72" height="25" as="geometry" />
        </mxCell>
        <mxCell id="TL4UzfGEoN0zPa1Lu0g8-10" value="&lt;font style=&quot;font-size: 9px;&quot;&gt;tanggal&lt;/font&gt;" style="ellipse;whiteSpace=wrap;html=1;align=center;labelBackgroundColor=none;" vertex="1" parent="1">
          <mxGeometry x="19" y="382" width="72" height="25" as="geometry" />
        </mxCell>
        <mxCell id="TL4UzfGEoN0zPa1Lu0g8-11" value="&lt;font style=&quot;font-size: 9px;&quot;&gt;&lt;u&gt;room_type_id&lt;/u&gt;&lt;/font&gt;" style="ellipse;whiteSpace=wrap;html=1;align=center;labelBackgroundColor=none;" vertex="1" parent="1">
          <mxGeometry x="28" y="356" width="72" height="25" as="geometry" />
        </mxCell>
        <mxCell id="TL4UzfGEoN0zPa1Lu0g8-12" value="&lt;font style=&quot;font-size: 9px;&quot;&gt;&lt;u&gt;user_id&lt;/u&gt;&lt;/font&gt;" style="ellipse;whiteSpace=wrap;html=1;align=center;labelBackgroundColor=none;" vertex="1" parent="1">
          <mxGeometry x="54" y="331" width="72" height="25" as="geometry" />
        </mxCell>
        <mxCell id="TL4UzfGEoN0zPa1Lu0g8-14" value="" style="endArrow=none;html=1;rounded=0;entryX=0.5;entryY=0;entryDx=0;entryDy=0;exitX=0.5;exitY=1;exitDx=0;exitDy=0;" edge="1" parent="1" source="8sHy2h1UV8YPM5XxpdJE-2" target="8sHy2h1UV8YPM5XxpdJE-1">
          <mxGeometry relative="1" as="geometry">
            <mxPoint x="58" y="110.5" as="sourcePoint" />
            <mxPoint x="221" y="116" as="targetPoint" />
          </mxGeometry>
        </mxCell>
        <mxCell id="TL4UzfGEoN0zPa1Lu0g8-15" value="" style="endArrow=none;html=1;rounded=0;entryX=0.5;entryY=0;entryDx=0;entryDy=0;exitX=0.5;exitY=1;exitDx=0;exitDy=0;" edge="1" parent="1" source="8sHy2h1UV8YPM5XxpdJE-41" target="8sHy2h1UV8YPM5XxpdJE-1">
          <mxGeometry relative="1" as="geometry">
            <mxPoint x="149" y="71" as="sourcePoint" />
            <mxPoint x="269" y="99" as="targetPoint" />
          </mxGeometry>
        </mxCell>
        <mxCell id="TL4UzfGEoN0zPa1Lu0g8-16" value="" style="endArrow=none;html=1;rounded=0;exitX=0.5;exitY=0;exitDx=0;exitDy=0;entryX=0.5;entryY=1;entryDx=0;entryDy=0;" edge="1" parent="1" source="8sHy2h1UV8YPM5XxpdJE-1" target="8sHy2h1UV8YPM5XxpdJE-40">
          <mxGeometry relative="1" as="geometry">
            <mxPoint x="161" y="99" as="sourcePoint" />
            <mxPoint x="270" y="73" as="targetPoint" />
          </mxGeometry>
        </mxCell>
        <mxCell id="TL4UzfGEoN0zPa1Lu0g8-17" value="" style="endArrow=none;html=1;rounded=0;exitX=0.5;exitY=0;exitDx=0;exitDy=0;entryX=0.5;entryY=1;entryDx=0;entryDy=0;" edge="1" parent="1" source="8sHy2h1UV8YPM5XxpdJE-1" target="8sHy2h1UV8YPM5XxpdJE-5">
          <mxGeometry relative="1" as="geometry">
            <mxPoint x="182" y="109" as="sourcePoint" />
            <mxPoint x="342" y="109" as="targetPoint" />
          </mxGeometry>
        </mxCell>
        <mxCell id="TL4UzfGEoN0zPa1Lu0g8-18" value="" style="endArrow=none;html=1;rounded=0;exitX=0.5;exitY=1;exitDx=0;exitDy=0;entryX=0.5;entryY=0;entryDx=0;entryDy=0;" edge="1" parent="1" source="8sHy2h1UV8YPM5XxpdJE-64" target="8sHy2h1UV8YPM5XxpdJE-8">
          <mxGeometry relative="1" as="geometry">
            <mxPoint x="414" y="112" as="sourcePoint" />
            <mxPoint x="574" y="112" as="targetPoint" />
          </mxGeometry>
        </mxCell>
        <mxCell id="TL4UzfGEoN0zPa1Lu0g8-19" value="" style="endArrow=none;html=1;rounded=0;exitX=0.5;exitY=1;exitDx=0;exitDy=0;entryX=0.5;entryY=0;entryDx=0;entryDy=0;" edge="1" parent="1" source="8sHy2h1UV8YPM5XxpdJE-60" target="8sHy2h1UV8YPM5XxpdJE-8">
          <mxGeometry relative="1" as="geometry">
            <mxPoint x="409" y="86" as="sourcePoint" />
            <mxPoint x="569" y="86" as="targetPoint" />
          </mxGeometry>
        </mxCell>
        <mxCell id="TL4UzfGEoN0zPa1Lu0g8-20" value="" style="endArrow=none;html=1;rounded=0;exitX=0.5;exitY=0;exitDx=0;exitDy=0;entryX=0.5;entryY=1;entryDx=0;entryDy=0;" edge="1" parent="1" source="8sHy2h1UV8YPM5XxpdJE-8" target="8sHy2h1UV8YPM5XxpdJE-62">
          <mxGeometry relative="1" as="geometry">
            <mxPoint x="498" y="108" as="sourcePoint" />
            <mxPoint x="612" y="89" as="targetPoint" />
          </mxGeometry>
        </mxCell>
        <mxCell id="TL4UzfGEoN0zPa1Lu0g8-21" value="" style="endArrow=none;html=1;rounded=0;exitX=0.5;exitY=0;exitDx=0;exitDy=0;entryX=0.5;entryY=1;entryDx=0;entryDy=0;" edge="1" parent="1" source="8sHy2h1UV8YPM5XxpdJE-8" target="8sHy2h1UV8YPM5XxpdJE-61">
          <mxGeometry relative="1" as="geometry">
            <mxPoint x="492" y="102" as="sourcePoint" />
            <mxPoint x="559" y="79" as="targetPoint" />
          </mxGeometry>
        </mxCell>
        <mxCell id="TL4UzfGEoN0zPa1Lu0g8-22" value="" style="endArrow=none;html=1;rounded=0;exitX=0.5;exitY=1;exitDx=0;exitDy=0;entryX=0.5;entryY=0;entryDx=0;entryDy=0;" edge="1" parent="1" source="8sHy2h1UV8YPM5XxpdJE-65" target="8sHy2h1UV8YPM5XxpdJE-9">
          <mxGeometry relative="1" as="geometry">
            <mxPoint x="682" y="127" as="sourcePoint" />
            <mxPoint x="842" y="127" as="targetPoint" />
          </mxGeometry>
        </mxCell>
        <mxCell id="TL4UzfGEoN0zPa1Lu0g8-23" value="" style="endArrow=none;html=1;rounded=0;exitX=0.5;exitY=1;exitDx=0;exitDy=0;entryX=0.5;entryY=0;entryDx=0;entryDy=0;" edge="1" parent="1" source="8sHy2h1UV8YPM5XxpdJE-67" target="8sHy2h1UV8YPM5XxpdJE-9">
          <mxGeometry relative="1" as="geometry">
            <mxPoint x="682" y="127" as="sourcePoint" />
            <mxPoint x="842" y="127" as="targetPoint" />
          </mxGeometry>
        </mxCell>
        <mxCell id="TL4UzfGEoN0zPa1Lu0g8-24" value="" style="endArrow=none;html=1;rounded=0;exitX=0.5;exitY=0;exitDx=0;exitDy=0;entryX=0.5;entryY=1;entryDx=0;entryDy=0;" edge="1" parent="1" source="8sHy2h1UV8YPM5XxpdJE-9" target="8sHy2h1UV8YPM5XxpdJE-66">
          <mxGeometry relative="1" as="geometry">
            <mxPoint x="752" y="111" as="sourcePoint" />
            <mxPoint x="876" y="99" as="targetPoint" />
          </mxGeometry>
        </mxCell>
        <mxCell id="TL4UzfGEoN0zPa1Lu0g8-25" value="" style="endArrow=none;html=1;rounded=0;exitX=0.5;exitY=1;exitDx=0;exitDy=0;entryX=0.5;entryY=0;entryDx=0;entryDy=0;" edge="1" parent="1" source="8sHy2h1UV8YPM5XxpdJE-49" target="8sHy2h1UV8YPM5XxpdJE-74">
          <mxGeometry relative="1" as="geometry">
            <mxPoint x="716" y="415" as="sourcePoint" />
            <mxPoint x="876" y="415" as="targetPoint" />
          </mxGeometry>
        </mxCell>
        <mxCell id="TL4UzfGEoN0zPa1Lu0g8-26" value="" style="endArrow=none;html=1;rounded=0;exitX=0.5;exitY=1;exitDx=0;exitDy=0;entryX=0.5;entryY=0;entryDx=0;entryDy=0;" edge="1" parent="1" source="8sHy2h1UV8YPM5XxpdJE-49" target="8sHy2h1UV8YPM5XxpdJE-69">
          <mxGeometry relative="1" as="geometry">
            <mxPoint x="695" y="420" as="sourcePoint" />
            <mxPoint x="855" y="420" as="targetPoint" />
          </mxGeometry>
        </mxCell>
        <mxCell id="TL4UzfGEoN0zPa1Lu0g8-27" value="" style="endArrow=none;html=1;rounded=0;exitX=0.5;exitY=1;exitDx=0;exitDy=0;entryX=0;entryY=0.5;entryDx=0;entryDy=0;" edge="1" parent="1" source="8sHy2h1UV8YPM5XxpdJE-49" target="8sHy2h1UV8YPM5XxpdJE-70">
          <mxGeometry relative="1" as="geometry">
            <mxPoint x="701" y="420" as="sourcePoint" />
            <mxPoint x="861" y="420" as="targetPoint" />
          </mxGeometry>
        </mxCell>
        <mxCell id="TL4UzfGEoN0zPa1Lu0g8-28" value="" style="endArrow=none;html=1;rounded=0;exitX=1;exitY=0.5;exitDx=0;exitDy=0;entryX=0;entryY=0.5;entryDx=0;entryDy=0;" edge="1" parent="1" source="8sHy2h1UV8YPM5XxpdJE-49" target="8sHy2h1UV8YPM5XxpdJE-71">
          <mxGeometry relative="1" as="geometry">
            <mxPoint x="771" y="420" as="sourcePoint" />
            <mxPoint x="931" y="420" as="targetPoint" />
          </mxGeometry>
        </mxCell>
        <mxCell id="TL4UzfGEoN0zPa1Lu0g8-29" value="" style="endArrow=none;html=1;rounded=0;entryX=0.5;entryY=1;entryDx=0;entryDy=0;exitX=1;exitY=0.5;exitDx=0;exitDy=0;" edge="1" parent="1" source="8sHy2h1UV8YPM5XxpdJE-49" target="8sHy2h1UV8YPM5XxpdJE-72">
          <mxGeometry relative="1" as="geometry">
            <mxPoint x="771" y="354" as="sourcePoint" />
            <mxPoint x="931" y="354" as="targetPoint" />
          </mxGeometry>
        </mxCell>
        <mxCell id="TL4UzfGEoN0zPa1Lu0g8-30" value="" style="endArrow=none;html=1;rounded=0;exitX=1;exitY=0.5;exitDx=0;exitDy=0;entryX=0.5;entryY=1;entryDx=0;entryDy=0;" edge="1" parent="1" source="8sHy2h1UV8YPM5XxpdJE-49" target="8sHy2h1UV8YPM5XxpdJE-73">
          <mxGeometry relative="1" as="geometry">
            <mxPoint x="771" y="354" as="sourcePoint" />
            <mxPoint x="931" y="354" as="targetPoint" />
          </mxGeometry>
        </mxCell>
        <mxCell id="TL4UzfGEoN0zPa1Lu0g8-31" value="" style="endArrow=none;html=1;rounded=0;exitX=1;exitY=0.5;exitDx=0;exitDy=0;entryX=0.5;entryY=0;entryDx=0;entryDy=0;" edge="1" parent="1" source="TL4UzfGEoN0zPa1Lu0g8-3" target="8sHy2h1UV8YPM5XxpdJE-44">
          <mxGeometry relative="1" as="geometry">
            <mxPoint x="139" y="324" as="sourcePoint" />
            <mxPoint x="299" y="324" as="targetPoint" />
          </mxGeometry>
        </mxCell>
        <mxCell id="TL4UzfGEoN0zPa1Lu0g8-32" value="" style="endArrow=none;html=1;rounded=0;exitX=1;exitY=0.5;exitDx=0;exitDy=0;entryX=0.5;entryY=0;entryDx=0;entryDy=0;" edge="1" parent="1" source="TL4UzfGEoN0zPa1Lu0g8-12" target="8sHy2h1UV8YPM5XxpdJE-44">
          <mxGeometry relative="1" as="geometry">
            <mxPoint x="139" y="324" as="sourcePoint" />
            <mxPoint x="299" y="324" as="targetPoint" />
          </mxGeometry>
        </mxCell>
        <mxCell id="TL4UzfGEoN0zPa1Lu0g8-33" value="" style="endArrow=none;html=1;rounded=0;exitX=1;exitY=0.5;exitDx=0;exitDy=0;entryX=0;entryY=0.5;entryDx=0;entryDy=0;" edge="1" parent="1" source="TL4UzfGEoN0zPa1Lu0g8-11" target="8sHy2h1UV8YPM5XxpdJE-44">
          <mxGeometry relative="1" as="geometry">
            <mxPoint x="139" y="324" as="sourcePoint" />
            <mxPoint x="299" y="324" as="targetPoint" />
          </mxGeometry>
        </mxCell>
        <mxCell id="TL4UzfGEoN0zPa1Lu0g8-34" value="" style="endArrow=none;html=1;rounded=0;exitX=1;exitY=0.5;exitDx=0;exitDy=0;entryX=0;entryY=0.5;entryDx=0;entryDy=0;" edge="1" parent="1" source="TL4UzfGEoN0zPa1Lu0g8-10" target="8sHy2h1UV8YPM5XxpdJE-44">
          <mxGeometry relative="1" as="geometry">
            <mxPoint x="139" y="324" as="sourcePoint" />
            <mxPoint x="299" y="324" as="targetPoint" />
          </mxGeometry>
        </mxCell>
        <mxCell id="TL4UzfGEoN0zPa1Lu0g8-35" value="" style="endArrow=none;html=1;rounded=0;exitX=1;exitY=0.5;exitDx=0;exitDy=0;entryX=0;entryY=0.5;entryDx=0;entryDy=0;" edge="1" parent="1" source="TL4UzfGEoN0zPa1Lu0g8-9" target="8sHy2h1UV8YPM5XxpdJE-44">
          <mxGeometry relative="1" as="geometry">
            <mxPoint x="139" y="409" as="sourcePoint" />
            <mxPoint x="299" y="409" as="targetPoint" />
          </mxGeometry>
        </mxCell>
        <mxCell id="TL4UzfGEoN0zPa1Lu0g8-36" value="" style="endArrow=none;html=1;rounded=0;exitX=1;exitY=0.5;exitDx=0;exitDy=0;entryX=0.25;entryY=1;entryDx=0;entryDy=0;" edge="1" parent="1" source="TL4UzfGEoN0zPa1Lu0g8-7" target="8sHy2h1UV8YPM5XxpdJE-44">
          <mxGeometry relative="1" as="geometry">
            <mxPoint x="139" y="409" as="sourcePoint" />
            <mxPoint x="196" y="410" as="targetPoint" />
          </mxGeometry>
        </mxCell>
        <mxCell id="TL4UzfGEoN0zPa1Lu0g8-37" value="" style="endArrow=none;html=1;rounded=0;exitX=1;exitY=0.5;exitDx=0;exitDy=0;entryX=0.25;entryY=1;entryDx=0;entryDy=0;" edge="1" parent="1" source="TL4UzfGEoN0zPa1Lu0g8-8" target="8sHy2h1UV8YPM5XxpdJE-44">
          <mxGeometry relative="1" as="geometry">
            <mxPoint x="117" y="429" as="sourcePoint" />
            <mxPoint x="277" y="429" as="targetPoint" />
          </mxGeometry>
        </mxCell>
        <mxCell id="TL4UzfGEoN0zPa1Lu0g8-38" value="" style="endArrow=none;html=1;rounded=0;exitX=0.75;exitY=1;exitDx=0;exitDy=0;entryX=0;entryY=0.5;entryDx=0;entryDy=0;" edge="1" parent="1" source="8sHy2h1UV8YPM5XxpdJE-44" target="TL4UzfGEoN0zPa1Lu0g8-6">
          <mxGeometry relative="1" as="geometry">
            <mxPoint x="214" y="436" as="sourcePoint" />
            <mxPoint x="374" y="436" as="targetPoint" />
          </mxGeometry>
        </mxCell>
        <mxCell id="TL4UzfGEoN0zPa1Lu0g8-39" value="" style="endArrow=none;html=1;rounded=0;exitX=0.75;exitY=1;exitDx=0;exitDy=0;entryX=0;entryY=0.5;entryDx=0;entryDy=0;" edge="1" parent="1" source="8sHy2h1UV8YPM5XxpdJE-44" target="TL4UzfGEoN0zPa1Lu0g8-5">
          <mxGeometry relative="1" as="geometry">
            <mxPoint x="239" y="436" as="sourcePoint" />
            <mxPoint x="399" y="436" as="targetPoint" />
          </mxGeometry>
        </mxCell>
        <mxCell id="TL4UzfGEoN0zPa1Lu0g8-40" value="" style="endArrow=none;html=1;rounded=0;exitX=0.75;exitY=1;exitDx=0;exitDy=0;entryX=0;entryY=0.5;entryDx=0;entryDy=0;" edge="1" parent="1" source="8sHy2h1UV8YPM5XxpdJE-44" target="TL4UzfGEoN0zPa1Lu0g8-4">
          <mxGeometry relative="1" as="geometry">
            <mxPoint x="239" y="436" as="sourcePoint" />
            <mxPoint x="399" y="436" as="targetPoint" />
          </mxGeometry>
        </mxCell>
        <mxCell id="TL4UzfGEoN0zPa1Lu0g8-41" value="" style="endArrow=none;html=1;rounded=0;exitX=0.5;exitY=0;exitDx=0;exitDy=0;entryX=0.5;entryY=1;entryDx=0;entryDy=0;" edge="1" parent="1" source="8sHy2h1UV8YPM5XxpdJE-75" target="8sHy2h1UV8YPM5XxpdJE-56">
          <mxGeometry relative="1" as="geometry">
            <mxPoint x="215" y="668" as="sourcePoint" />
            <mxPoint x="375" y="668" as="targetPoint" />
          </mxGeometry>
        </mxCell>
        <mxCell id="TL4UzfGEoN0zPa1Lu0g8-42" value="" style="endArrow=none;html=1;rounded=0;exitX=0.5;exitY=0;exitDx=0;exitDy=0;entryX=0.5;entryY=1;entryDx=0;entryDy=0;" edge="1" parent="1" source="8sHy2h1UV8YPM5XxpdJE-76" target="8sHy2h1UV8YPM5XxpdJE-56">
          <mxGeometry relative="1" as="geometry">
            <mxPoint x="215" y="668" as="sourcePoint" />
            <mxPoint x="375" y="668" as="targetPoint" />
          </mxGeometry>
        </mxCell>
        <mxCell id="TL4UzfGEoN0zPa1Lu0g8-43" value="" style="endArrow=none;html=1;rounded=0;exitX=0.5;exitY=0;exitDx=0;exitDy=0;entryX=0.5;entryY=1;entryDx=0;entryDy=0;" edge="1" parent="1" source="8sHy2h1UV8YPM5XxpdJE-77" target="8sHy2h1UV8YPM5XxpdJE-56">
          <mxGeometry relative="1" as="geometry">
            <mxPoint x="215" y="668" as="sourcePoint" />
            <mxPoint x="375" y="668" as="targetPoint" />
          </mxGeometry>
        </mxCell>
        <mxCell id="TL4UzfGEoN0zPa1Lu0g8-44" value="" style="endArrow=none;html=1;rounded=0;exitX=0.5;exitY=1;exitDx=0;exitDy=0;entryX=0.5;entryY=0;entryDx=0;entryDy=0;" edge="1" parent="1" source="8sHy2h1UV8YPM5XxpdJE-56" target="8sHy2h1UV8YPM5XxpdJE-78">
          <mxGeometry relative="1" as="geometry">
            <mxPoint x="215" y="668" as="sourcePoint" />
            <mxPoint x="375" y="668" as="targetPoint" />
          </mxGeometry>
        </mxCell>
        <mxCell id="TL4UzfGEoN0zPa1Lu0g8-45" value="&lt;font style=&quot;font-size: 9px;&quot;&gt;user_id&lt;/font&gt;" style="ellipse;whiteSpace=wrap;html=1;align=center;fontStyle=4;labelBackgroundColor=none;" vertex="1" parent="1">
          <mxGeometry x="470" y="465" width="69" height="23" as="geometry" />
        </mxCell>
        <mxCell id="TL4UzfGEoN0zPa1Lu0g8-46" value="&lt;font style=&quot;font-size: 9px;&quot;&gt;reservation_order_id&lt;/font&gt;" style="ellipse;whiteSpace=wrap;html=1;align=center;fontStyle=4;labelBackgroundColor=none;" vertex="1" parent="1">
          <mxGeometry x="387" y="435" width="104" height="30" as="geometry" />
        </mxCell>
        <mxCell id="TL4UzfGEoN0zPa1Lu0g8-47" value="&lt;font style=&quot;font-size: 9px;&quot;&gt;user_reservation_id&lt;/font&gt;" style="ellipse;whiteSpace=wrap;html=1;align=center;fontStyle=4;labelBackgroundColor=none;" vertex="1" parent="1">
          <mxGeometry x="520" y="435" width="104" height="30" as="geometry" />
        </mxCell>
        <mxCell id="TL4UzfGEoN0zPa1Lu0g8-48" value="" style="endArrow=none;html=1;rounded=0;entryX=0.5;entryY=1;entryDx=0;entryDy=0;exitX=0.5;exitY=0;exitDx=0;exitDy=0;" edge="1" parent="1" source="TL4UzfGEoN0zPa1Lu0g8-46" target="8sHy2h1UV8YPM5XxpdJE-50">
          <mxGeometry relative="1" as="geometry">
            <mxPoint x="277" y="487" as="sourcePoint" />
            <mxPoint x="437" y="487" as="targetPoint" />
          </mxGeometry>
        </mxCell>
        <mxCell id="TL4UzfGEoN0zPa1Lu0g8-49" value="" style="endArrow=none;html=1;rounded=0;exitX=0.5;exitY=1;exitDx=0;exitDy=0;entryX=0.5;entryY=0;entryDx=0;entryDy=0;" edge="1" parent="1" source="8sHy2h1UV8YPM5XxpdJE-50" target="TL4UzfGEoN0zPa1Lu0g8-45">
          <mxGeometry relative="1" as="geometry">
            <mxPoint x="525" y="410" as="sourcePoint" />
            <mxPoint x="685" y="410" as="targetPoint" />
          </mxGeometry>
        </mxCell>
        <mxCell id="TL4UzfGEoN0zPa1Lu0g8-50" value="" style="endArrow=none;html=1;rounded=0;entryX=0.5;entryY=0;entryDx=0;entryDy=0;exitX=0.5;exitY=1;exitDx=0;exitDy=0;" edge="1" parent="1" source="8sHy2h1UV8YPM5XxpdJE-50" target="TL4UzfGEoN0zPa1Lu0g8-47">
          <mxGeometry relative="1" as="geometry">
            <mxPoint x="425" y="405" as="sourcePoint" />
            <mxPoint x="585" y="405" as="targetPoint" />
          </mxGeometry>
        </mxCell>
        <mxCell id="TL4UzfGEoN0zPa1Lu0g8-51" value="&lt;font style=&quot;font-size: 9px;&quot;&gt;payment_id&lt;/font&gt;" style="ellipse;whiteSpace=wrap;html=1;align=center;fontStyle=4;labelBackgroundColor=none;" vertex="1" parent="1">
          <mxGeometry x="42" y="567" width="69" height="23" as="geometry" />
        </mxCell>
        <mxCell id="TL4UzfGEoN0zPa1Lu0g8-52" value="&lt;font style=&quot;font-size: 9px;&quot;&gt;reservation_payment_id&lt;/font&gt;" style="ellipse;whiteSpace=wrap;html=1;align=center;fontStyle=4;labelBackgroundColor=none;" vertex="1" parent="1">
          <mxGeometry x="26" y="530" width="104" height="30" as="geometry" />
        </mxCell>
        <mxCell id="TL4UzfGEoN0zPa1Lu0g8-53" value="&lt;font style=&quot;font-size: 9px;&quot;&gt;reservation_order_id&lt;/font&gt;" style="ellipse;whiteSpace=wrap;html=1;align=center;fontStyle=4;labelBackgroundColor=none;" vertex="1" parent="1">
          <mxGeometry x="42" y="490" width="104" height="30" as="geometry" />
        </mxCell>
        <mxCell id="TL4UzfGEoN0zPa1Lu0g8-54" value="" style="endArrow=none;html=1;rounded=0;exitX=1;exitY=0.5;exitDx=0;exitDy=0;entryX=0;entryY=0.5;entryDx=0;entryDy=0;" edge="1" parent="1" source="TL4UzfGEoN0zPa1Lu0g8-53" target="TL4UzfGEoN0zPa1Lu0g8-2">
          <mxGeometry relative="1" as="geometry">
            <mxPoint x="56" y="517" as="sourcePoint" />
            <mxPoint x="216" y="517" as="targetPoint" />
          </mxGeometry>
        </mxCell>
        <mxCell id="TL4UzfGEoN0zPa1Lu0g8-55" value="" style="endArrow=none;html=1;rounded=0;exitX=1;exitY=0.5;exitDx=0;exitDy=0;entryX=0;entryY=0.5;entryDx=0;entryDy=0;" edge="1" parent="1" source="TL4UzfGEoN0zPa1Lu0g8-52" target="TL4UzfGEoN0zPa1Lu0g8-2">
          <mxGeometry relative="1" as="geometry">
            <mxPoint x="56" y="517" as="sourcePoint" />
            <mxPoint x="216" y="517" as="targetPoint" />
          </mxGeometry>
        </mxCell>
        <mxCell id="TL4UzfGEoN0zPa1Lu0g8-56" value="" style="endArrow=none;html=1;rounded=0;exitX=1;exitY=0.5;exitDx=0;exitDy=0;entryX=0;entryY=0.5;entryDx=0;entryDy=0;" edge="1" parent="1" source="TL4UzfGEoN0zPa1Lu0g8-51" target="TL4UzfGEoN0zPa1Lu0g8-2">
          <mxGeometry relative="1" as="geometry">
            <mxPoint x="56" y="517" as="sourcePoint" />
            <mxPoint x="216" y="517" as="targetPoint" />
          </mxGeometry>
        </mxCell>
        <mxCell id="TL4UzfGEoN0zPa1Lu0g8-57" value="&lt;font style=&quot;font-size: 9px;&quot;&gt;reservation_order_id&lt;/font&gt;" style="ellipse;whiteSpace=wrap;html=1;align=center;fontStyle=4;labelBackgroundColor=none;" vertex="1" parent="1">
          <mxGeometry x="281" y="309" width="104" height="30" as="geometry" />
        </mxCell>
        <mxCell id="TL4UzfGEoN0zPa1Lu0g8-58" value="&lt;font style=&quot;font-size: 9px;&quot;&gt;reservation_admin_id&lt;/font&gt;" style="ellipse;whiteSpace=wrap;html=1;align=center;fontStyle=4;labelBackgroundColor=none;" vertex="1" parent="1">
          <mxGeometry x="304" y="277" width="104" height="30" as="geometry" />
        </mxCell>
        <mxCell id="TL4UzfGEoN0zPa1Lu0g8-59" value="&lt;font style=&quot;font-size: 9px;&quot;&gt;admin_id&lt;/font&gt;" style="ellipse;whiteSpace=wrap;html=1;align=center;fontStyle=4;labelBackgroundColor=none;" vertex="1" parent="1">
          <mxGeometry x="275" y="249" width="69" height="23" as="geometry" />
        </mxCell>
        <mxCell id="TL4UzfGEoN0zPa1Lu0g8-60" value="" style="endArrow=none;html=1;rounded=0;exitX=1;exitY=0.5;exitDx=0;exitDy=0;entryX=0;entryY=0.5;entryDx=0;entryDy=0;" edge="1" parent="1" source="8sHy2h1UV8YPM5XxpdJE-21" target="TL4UzfGEoN0zPa1Lu0g8-58">
          <mxGeometry relative="1" as="geometry">
            <mxPoint x="203" y="290" as="sourcePoint" />
            <mxPoint x="363" y="290" as="targetPoint" />
          </mxGeometry>
        </mxCell>
        <mxCell id="TL4UzfGEoN0zPa1Lu0g8-61" value="" style="endArrow=none;html=1;rounded=0;exitX=1;exitY=0.5;exitDx=0;exitDy=0;entryX=0;entryY=0;entryDx=0;entryDy=0;" edge="1" parent="1" source="8sHy2h1UV8YPM5XxpdJE-21" target="TL4UzfGEoN0zPa1Lu0g8-57">
          <mxGeometry relative="1" as="geometry">
            <mxPoint x="203" y="290" as="sourcePoint" />
            <mxPoint x="363" y="290" as="targetPoint" />
          </mxGeometry>
        </mxCell>
        <mxCell id="TL4UzfGEoN0zPa1Lu0g8-62" value="" style="endArrow=none;html=1;rounded=0;exitX=1;exitY=0.5;exitDx=0;exitDy=0;entryX=0.281;entryY=0.969;entryDx=0;entryDy=0;entryPerimeter=0;" edge="1" parent="1" source="8sHy2h1UV8YPM5XxpdJE-21" target="TL4UzfGEoN0zPa1Lu0g8-59">
          <mxGeometry relative="1" as="geometry">
            <mxPoint x="203" y="290" as="sourcePoint" />
            <mxPoint x="292.5442337270488" y="271.440471086848" as="targetPoint" />
          </mxGeometry>
        </mxCell>
        <mxCell id="TL4UzfGEoN0zPa1Lu0g8-63" value="&lt;span style=&quot;font-size: 10px;&quot;&gt;Memiliki&lt;/span&gt;" style="shape=rhombus;perimeter=rhombusPerimeter;whiteSpace=wrap;html=1;align=center;" vertex="1" parent="1">
          <mxGeometry x="496" y="215" width="91" height="35" as="geometry" />
        </mxCell>
        <mxCell id="TL4UzfGEoN0zPa1Lu0g8-64" value="&lt;span style=&quot;font-size: 10px;&quot;&gt;Memiliki&lt;/span&gt;" style="shape=rhombus;perimeter=rhombusPerimeter;whiteSpace=wrap;html=1;align=center;" vertex="1" parent="1">
          <mxGeometry x="612" y="266" width="91" height="35" as="geometry" />
        </mxCell>
        <mxCell id="TL4UzfGEoN0zPa1Lu0g8-65" value="&lt;font style=&quot;font-size: 9px;&quot;&gt;menu_id&lt;/font&gt;" style="ellipse;whiteSpace=wrap;html=1;align=center;fontStyle=4;labelBackgroundColor=none;" vertex="1" parent="1">
          <mxGeometry x="555" y="162" width="69" height="23" as="geometry" />
        </mxCell>
        <mxCell id="TL4UzfGEoN0zPa1Lu0g8-66" value="&lt;font style=&quot;font-size: 9px;&quot;&gt;room_type_id&lt;/font&gt;" style="ellipse;whiteSpace=wrap;html=1;align=center;fontStyle=4;labelBackgroundColor=none;" vertex="1" parent="1">
          <mxGeometry x="714" y="292" width="69" height="23" as="geometry" />
        </mxCell>
        <mxCell id="TL4UzfGEoN0zPa1Lu0g8-67" value="&lt;font style=&quot;font-size: 9px;&quot;&gt;reservation_order_id&lt;/font&gt;" style="ellipse;whiteSpace=wrap;html=1;align=center;fontStyle=4;labelBackgroundColor=none;" vertex="1" parent="1">
          <mxGeometry x="664" y="321" width="104" height="30" as="geometry" />
        </mxCell>
        <mxCell id="TL4UzfGEoN0zPa1Lu0g8-68" value="&lt;font style=&quot;font-size: 9px;&quot;&gt;reservation_order_id&lt;/font&gt;" style="ellipse;whiteSpace=wrap;html=1;align=center;fontStyle=4;labelBackgroundColor=none;" vertex="1" parent="1">
          <mxGeometry x="590" y="185" width="104" height="30" as="geometry" />
        </mxCell>
        <mxCell id="TL4UzfGEoN0zPa1Lu0g8-69" value="&lt;font style=&quot;font-size: 9px;&quot;&gt;&amp;nbsp;reservation_menu_id&amp;nbsp;&lt;/font&gt;" style="ellipse;whiteSpace=wrap;html=1;align=center;fontStyle=4;labelBackgroundColor=none;" vertex="1" parent="1">
          <mxGeometry x="601" y="220" width="104" height="30" as="geometry" />
        </mxCell>
        <mxCell id="TL4UzfGEoN0zPa1Lu0g8-70" value="&lt;font style=&quot;font-size: 9px;&quot;&gt;roomtype_reservation_id&lt;/font&gt;" style="ellipse;whiteSpace=wrap;html=1;align=center;fontStyle=4;labelBackgroundColor=none;" vertex="1" parent="1">
          <mxGeometry x="560" y="337" width="104" height="30" as="geometry" />
        </mxCell>
        <mxCell id="TL4UzfGEoN0zPa1Lu0g8-75" value="" style="endArrow=none;html=1;rounded=0;exitX=1;exitY=0.5;exitDx=0;exitDy=0;entryX=0;entryY=0.5;entryDx=0;entryDy=0;" edge="1" parent="1" source="8sHy2h1UV8YPM5XxpdJE-44" target="8sHy2h1UV8YPM5XxpdJE-50">
          <mxGeometry relative="1" as="geometry">
            <mxPoint x="411" y="371" as="sourcePoint" />
            <mxPoint x="571" y="371" as="targetPoint" />
          </mxGeometry>
        </mxCell>
        <mxCell id="TL4UzfGEoN0zPa1Lu0g8-76" value="" style="resizable=0;html=1;whiteSpace=wrap;align=left;verticalAlign=bottom;" connectable="0" vertex="1" parent="TL4UzfGEoN0zPa1Lu0g8-75">
          <mxGeometry x="-1" relative="1" as="geometry" />
        </mxCell>
        <mxCell id="TL4UzfGEoN0zPa1Lu0g8-77" value="" style="resizable=0;html=1;whiteSpace=wrap;align=right;verticalAlign=bottom;" connectable="0" vertex="1" parent="TL4UzfGEoN0zPa1Lu0g8-75">
          <mxGeometry x="1" relative="1" as="geometry" />
        </mxCell>
        <mxCell id="TL4UzfGEoN0zPa1Lu0g8-78" value="" style="endArrow=none;html=1;rounded=0;exitX=1;exitY=0.5;exitDx=0;exitDy=0;entryX=0;entryY=0.5;entryDx=0;entryDy=0;" edge="1" parent="1" source="8sHy2h1UV8YPM5XxpdJE-50" target="8sHy2h1UV8YPM5XxpdJE-49">
          <mxGeometry relative="1" as="geometry">
            <mxPoint x="558.5" y="390" as="sourcePoint" />
            <mxPoint x="747.5" y="390" as="targetPoint" />
          </mxGeometry>
        </mxCell>
        <mxCell id="TL4UzfGEoN0zPa1Lu0g8-79" value="" style="resizable=0;html=1;whiteSpace=wrap;align=left;verticalAlign=bottom;" connectable="0" vertex="1" parent="TL4UzfGEoN0zPa1Lu0g8-78">
          <mxGeometry x="-1" relative="1" as="geometry" />
        </mxCell>
        <mxCell id="TL4UzfGEoN0zPa1Lu0g8-80" value="" style="resizable=0;html=1;whiteSpace=wrap;align=right;verticalAlign=bottom;" connectable="0" vertex="1" parent="TL4UzfGEoN0zPa1Lu0g8-78">
          <mxGeometry x="1" relative="1" as="geometry" />
        </mxCell>
        <mxCell id="TL4UzfGEoN0zPa1Lu0g8-83" value="" style="endArrow=none;html=1;rounded=0;entryX=0;entryY=0.5;entryDx=0;entryDy=0;exitX=1;exitY=0.5;exitDx=0;exitDy=0;" edge="1" parent="1" source="8sHy2h1UV8YPM5XxpdJE-44" target="TL4UzfGEoN0zPa1Lu0g8-64">
          <mxGeometry relative="1" as="geometry">
            <mxPoint x="543" y="317" as="sourcePoint" />
            <mxPoint x="703" y="317" as="targetPoint" />
          </mxGeometry>
        </mxCell>
        <mxCell id="TL4UzfGEoN0zPa1Lu0g8-99" value="M" style="edgeLabel;html=1;align=center;verticalAlign=middle;resizable=0;points=[];" vertex="1" connectable="0" parent="TL4UzfGEoN0zPa1Lu0g8-83">
          <mxGeometry x="0.2143" y="2" relative="1" as="geometry">
            <mxPoint y="-8" as="offset" />
          </mxGeometry>
        </mxCell>
        <mxCell id="TL4UzfGEoN0zPa1Lu0g8-84" value="" style="endArrow=none;html=1;rounded=0;entryX=0.5;entryY=1;entryDx=0;entryDy=0;exitX=1;exitY=0.5;exitDx=0;exitDy=0;" edge="1" parent="1" source="8sHy2h1UV8YPM5XxpdJE-44" target="TL4UzfGEoN0zPa1Lu0g8-63">
          <mxGeometry relative="1" as="geometry">
            <mxPoint x="407" y="317" as="sourcePoint" />
            <mxPoint x="567" y="317" as="targetPoint" />
          </mxGeometry>
        </mxCell>
        <mxCell id="TL4UzfGEoN0zPa1Lu0g8-85" value="" style="endArrow=none;html=1;rounded=0;exitX=0.5;exitY=1;exitDx=0;exitDy=0;entryX=0.5;entryY=0;entryDx=0;entryDy=0;" edge="1" parent="1" source="8sHy2h1UV8YPM5XxpdJE-1" target="8sHy2h1UV8YPM5XxpdJE-21">
          <mxGeometry relative="1" as="geometry">
            <mxPoint x="187" y="285" as="sourcePoint" />
            <mxPoint x="347" y="285" as="targetPoint" />
          </mxGeometry>
        </mxCell>
        <mxCell id="TL4UzfGEoN0zPa1Lu0g8-86" value="" style="endArrow=none;html=1;rounded=0;exitX=0.5;exitY=1;exitDx=0;exitDy=0;entryX=0.5;entryY=0;entryDx=0;entryDy=0;" edge="1" parent="1" source="8sHy2h1UV8YPM5XxpdJE-21" target="8sHy2h1UV8YPM5XxpdJE-44">
          <mxGeometry relative="1" as="geometry">
            <mxPoint x="187" y="285" as="sourcePoint" />
            <mxPoint x="347" y="285" as="targetPoint" />
          </mxGeometry>
        </mxCell>
        <mxCell id="TL4UzfGEoN0zPa1Lu0g8-87" value="" style="endArrow=none;html=1;rounded=0;exitX=0.5;exitY=0;exitDx=0;exitDy=0;entryX=0.5;entryY=1;entryDx=0;entryDy=0;" edge="1" parent="1" source="8sHy2h1UV8YPM5XxpdJE-56" target="TL4UzfGEoN0zPa1Lu0g8-2">
          <mxGeometry relative="1" as="geometry">
            <mxPoint x="241" y="573" as="sourcePoint" />
            <mxPoint x="401" y="573" as="targetPoint" />
          </mxGeometry>
        </mxCell>
        <mxCell id="TL4UzfGEoN0zPa1Lu0g8-88" value="" style="endArrow=none;html=1;rounded=0;exitX=0.5;exitY=0;exitDx=0;exitDy=0;entryX=0.5;entryY=1;entryDx=0;entryDy=0;" edge="1" parent="1" source="TL4UzfGEoN0zPa1Lu0g8-2" target="8sHy2h1UV8YPM5XxpdJE-44">
          <mxGeometry relative="1" as="geometry">
            <mxPoint x="241" y="500" as="sourcePoint" />
            <mxPoint x="401" y="500" as="targetPoint" />
          </mxGeometry>
        </mxCell>
        <mxCell id="TL4UzfGEoN0zPa1Lu0g8-89" value="" style="endArrow=none;html=1;rounded=0;exitX=0.5;exitY=1;exitDx=0;exitDy=0;entryX=0.5;entryY=0;entryDx=0;entryDy=0;" edge="1" parent="1" source="8sHy2h1UV8YPM5XxpdJE-8" target="TL4UzfGEoN0zPa1Lu0g8-63">
          <mxGeometry relative="1" as="geometry">
            <mxPoint x="489" y="218" as="sourcePoint" />
            <mxPoint x="649" y="218" as="targetPoint" />
          </mxGeometry>
        </mxCell>
        <mxCell id="TL4UzfGEoN0zPa1Lu0g8-90" value="" style="endArrow=none;html=1;rounded=0;exitX=1;exitY=0.5;exitDx=0;exitDy=0;entryX=0.5;entryY=1;entryDx=0;entryDy=0;" edge="1" parent="1" source="TL4UzfGEoN0zPa1Lu0g8-64" target="8sHy2h1UV8YPM5XxpdJE-9">
          <mxGeometry relative="1" as="geometry">
            <mxPoint x="703" y="191" as="sourcePoint" />
            <mxPoint x="863" y="191" as="targetPoint" />
          </mxGeometry>
        </mxCell>
        <mxCell id="TL4UzfGEoN0zPa1Lu0g8-91" value="" style="endArrow=none;html=1;rounded=0;exitX=1;exitY=0.5;exitDx=0;exitDy=0;entryX=0;entryY=0.5;entryDx=0;entryDy=0;" edge="1" parent="1" source="TL4UzfGEoN0zPa1Lu0g8-63" target="TL4UzfGEoN0zPa1Lu0g8-69">
          <mxGeometry relative="1" as="geometry">
            <mxPoint x="554" y="218" as="sourcePoint" />
            <mxPoint x="714" y="218" as="targetPoint" />
          </mxGeometry>
        </mxCell>
        <mxCell id="TL4UzfGEoN0zPa1Lu0g8-92" value="" style="endArrow=none;html=1;rounded=0;exitX=1;exitY=0.5;exitDx=0;exitDy=0;entryX=0;entryY=1;entryDx=0;entryDy=0;" edge="1" parent="1" source="TL4UzfGEoN0zPa1Lu0g8-63" target="TL4UzfGEoN0zPa1Lu0g8-68">
          <mxGeometry relative="1" as="geometry">
            <mxPoint x="554" y="218" as="sourcePoint" />
            <mxPoint x="714" y="218" as="targetPoint" />
          </mxGeometry>
        </mxCell>
        <mxCell id="TL4UzfGEoN0zPa1Lu0g8-93" value="" style="endArrow=none;html=1;rounded=0;exitX=1;exitY=0.5;exitDx=0;exitDy=0;entryX=0.315;entryY=1.014;entryDx=0;entryDy=0;entryPerimeter=0;" edge="1" parent="1" source="TL4UzfGEoN0zPa1Lu0g8-63" target="TL4UzfGEoN0zPa1Lu0g8-65">
          <mxGeometry relative="1" as="geometry">
            <mxPoint x="554" y="218" as="sourcePoint" />
            <mxPoint x="714" y="218" as="targetPoint" />
          </mxGeometry>
        </mxCell>
        <mxCell id="TL4UzfGEoN0zPa1Lu0g8-94" value="" style="endArrow=none;html=1;rounded=0;exitX=0.5;exitY=0;exitDx=0;exitDy=0;entryX=0.5;entryY=1;entryDx=0;entryDy=0;" edge="1" parent="1" source="TL4UzfGEoN0zPa1Lu0g8-70" target="TL4UzfGEoN0zPa1Lu0g8-64">
          <mxGeometry relative="1" as="geometry">
            <mxPoint x="554" y="321" as="sourcePoint" />
            <mxPoint x="714" y="321" as="targetPoint" />
          </mxGeometry>
        </mxCell>
        <mxCell id="TL4UzfGEoN0zPa1Lu0g8-95" value="" style="endArrow=none;html=1;rounded=0;exitX=0.5;exitY=1;exitDx=0;exitDy=0;entryX=0;entryY=0;entryDx=0;entryDy=0;" edge="1" parent="1" source="TL4UzfGEoN0zPa1Lu0g8-64" target="TL4UzfGEoN0zPa1Lu0g8-67">
          <mxGeometry relative="1" as="geometry">
            <mxPoint x="554" y="321" as="sourcePoint" />
            <mxPoint x="714" y="321" as="targetPoint" />
          </mxGeometry>
        </mxCell>
        <mxCell id="TL4UzfGEoN0zPa1Lu0g8-96" value="" style="endArrow=none;html=1;rounded=0;exitX=0.5;exitY=1;exitDx=0;exitDy=0;entryX=0;entryY=0.5;entryDx=0;entryDy=0;" edge="1" parent="1" source="TL4UzfGEoN0zPa1Lu0g8-64" target="TL4UzfGEoN0zPa1Lu0g8-66">
          <mxGeometry relative="1" as="geometry">
            <mxPoint x="554" y="321" as="sourcePoint" />
            <mxPoint x="714" y="321" as="targetPoint" />
          </mxGeometry>
        </mxCell>
        <mxCell id="TL4UzfGEoN0zPa1Lu0g8-97" value="M" style="text;html=1;align=center;verticalAlign=middle;resizable=0;points=[];autosize=1;strokeColor=none;fillColor=none;" vertex="1" parent="1">
          <mxGeometry x="366" y="364" width="28" height="26" as="geometry" />
        </mxCell>
        <mxCell id="TL4UzfGEoN0zPa1Lu0g8-98" value="N" style="text;html=1;align=center;verticalAlign=middle;resizable=0;points=[];autosize=1;strokeColor=none;fillColor=none;" vertex="1" parent="1">
          <mxGeometry x="614" y="364" width="27" height="26" as="geometry" />
        </mxCell>
        <mxCell id="TL4UzfGEoN0zPa1Lu0g8-100" value="N" style="text;html=1;align=center;verticalAlign=middle;resizable=0;points=[];autosize=1;strokeColor=none;fillColor=none;" vertex="1" parent="1">
          <mxGeometry x="714" y="178" width="27" height="26" as="geometry" />
        </mxCell>
        <mxCell id="TL4UzfGEoN0zPa1Lu0g8-101" value="M" style="text;html=1;align=center;verticalAlign=middle;resizable=0;points=[];autosize=1;strokeColor=none;fillColor=none;" vertex="1" parent="1">
          <mxGeometry x="445" y="266" width="28" height="26" as="geometry" />
        </mxCell>
        <mxCell id="TL4UzfGEoN0zPa1Lu0g8-102" value="N" style="text;html=1;align=center;verticalAlign=middle;resizable=0;points=[];autosize=1;strokeColor=none;fillColor=none;" vertex="1" parent="1">
          <mxGeometry x="487" y="153" width="27" height="26" as="geometry" />
        </mxCell>
        <mxCell id="TL4UzfGEoN0zPa1Lu0g8-103" value="M" style="text;html=1;align=center;verticalAlign=middle;resizable=0;points=[];autosize=1;strokeColor=none;fillColor=none;" vertex="1" parent="1">
          <mxGeometry x="192" y="168" width="28" height="26" as="geometry" />
        </mxCell>
        <mxCell id="TL4UzfGEoN0zPa1Lu0g8-104" value="1" style="text;html=1;align=center;verticalAlign=middle;resizable=0;points=[];autosize=1;strokeColor=none;fillColor=none;" vertex="1" parent="1">
          <mxGeometry x="198" y="321" width="25" height="26" as="geometry" />
        </mxCell>
        <mxCell id="TL4UzfGEoN0zPa1Lu0g8-105" value="1" style="text;html=1;align=center;verticalAlign=middle;resizable=0;points=[];autosize=1;strokeColor=none;fillColor=none;" vertex="1" parent="1">
          <mxGeometry x="200" y="429" width="25" height="26" as="geometry" />
        </mxCell>
        <mxCell id="TL4UzfGEoN0zPa1Lu0g8-106" value="M" style="text;html=1;align=center;verticalAlign=middle;resizable=0;points=[];autosize=1;strokeColor=none;fillColor=none;" vertex="1" parent="1">
          <mxGeometry x="192" y="555" width="28" height="26" as="geometry" />
        </mxCell>
      </root>
    </mxGraphModel>
  </diagram>
</mxfile>
